<?xml version="1.0" encoding="UTF-8"?>
<svg xmlns="http://www.w3.org/2000/svg" xmlns:xlink="http://www.w3.org/1999/xlink" width="96px" height="96px" viewBox="0 0 96 96" version="1.1">
<g id="surface1">
<path style=" stroke:none;fill-rule:nonzero;fill:rgb(100%,100%,100%);fill-opacity:1;" d="M 41.101562 81 L 41.101562 58.800781 L 46.5 42.898438 C 46.632812 42.699219 46.765625 42.550781 46.898438 42.449219 C 47.035156 42.351562 47.300781 42.300781 47.699219 42.300781 L 76.898438 42.300781 C 77.167969 42.300781 77.398438 42.351562 77.601562 42.449219 C 77.800781 42.550781 77.964844 42.699219 78.101562 42.898438 L 83.5 58.800781 L 83.5 81 C 83.5 81.398438 83.367188 81.75 83.101562 82.050781 C 82.832031 82.351562 82.464844 82.5 82 82.5 L 81.601562 82.5 C 81.199219 82.5 80.867188 82.351562 80.601562 82.050781 C 80.332031 81.75 80.199219 81.398438 80.199219 81 L 80.199219 75.398438 L 44.398438 75.398438 L 44.398438 81 C 44.398438 81.398438 44.265625 81.75 44 82.050781 C 43.734375 82.351562 43.367188 82.5 42.898438 82.5 L 42.601562 82.5 C 42.132812 82.5 41.765625 82.351562 41.5 82.050781 C 41.234375 81.75 41.101562 81.398438 41.101562 81 Z M 44.800781 56.300781 L 79.898438 56.300781 L 76 44.898438 L 48.601562 44.898438 Z M 43.699219 58.898438 L 43.699219 72.800781 Z M 50.300781 69.101562 C 51.300781 69.101562 52.132812 68.765625 52.800781 68.101562 C 53.464844 67.433594 53.800781 66.601562 53.800781 65.601562 C 53.800781 64.667969 53.464844 63.851562 52.800781 63.148438 C 52.132812 62.449219 51.300781 62.101562 50.300781 62.101562 C 49.300781 62.101562 48.464844 62.449219 47.800781 63.148438 C 47.132812 63.851562 46.800781 64.667969 46.800781 65.601562 C 46.800781 66.535156 47.132812 67.351562 47.800781 68.050781 C 48.464844 68.75 49.300781 69.101562 50.300781 69.101562 Z M 74.300781 69.101562 C 75.234375 69.101562 76.050781 68.765625 76.75 68.101562 C 77.449219 67.433594 77.800781 66.601562 77.800781 65.601562 C 77.800781 64.667969 77.449219 63.851562 76.75 63.148438 C 76.050781 62.449219 75.234375 62.101562 74.300781 62.101562 C 73.300781 62.101562 72.464844 62.449219 71.800781 63.148438 C 71.132812 63.851562 70.800781 64.667969 70.800781 65.601562 C 70.800781 66.535156 71.132812 67.351562 71.800781 68.050781 C 72.464844 68.75 73.300781 69.101562 74.300781 69.101562 Z M 25.398438 51 L 25.398438 45.199219 L 31.199219 45.199219 L 31.199219 51 Z M 41.699219 30.101562 L 41.699219 24.300781 L 47.5 24.300781 L 47.5 30.101562 Z M 25.398438 66.800781 L 25.398438 60.898438 L 31.199219 60.898438 L 31.199219 66.800781 Z M 25.398438 82.5 L 25.398438 76.601562 L 31.199219 76.601562 L 31.199219 82.5 Z M 12.5 82.5 L 12.5 32.300781 L 28.800781 32.300781 L 28.800781 11.398438 L 60.5 11.398438 L 60.5 32.199219 L 57.398438 32.199219 L 57.398438 14.5 L 31.898438 14.5 L 31.898438 35.398438 L 15.5 35.398438 L 15.5 82.5 Z M 43.699219 72.800781 L 80.898438 72.800781 L 80.898438 58.898438 L 43.699219 58.898438 Z M 43.699219 72.800781 "/>
</g>
</svg>
