<?xml version="1.0" encoding="UTF-8"?>
<svg xmlns="http://www.w3.org/2000/svg" xmlns:xlink="http://www.w3.org/1999/xlink" width="96px" height="96px" viewBox="0 0 96 96" version="1.1">
<g id="surface1">
<path style=" stroke:none;fill-rule:nonzero;fill:rgb(0%, 0%, 0%, 1);fill-opacity:1;" d="M 15.101562 66.5 L 15.101562 74.5 C 15.101562 75.101562 15.351562 75.648438 15.851562 76.148438 C 16.351562 76.648438 16.898438 76.898438 17.5 76.898438 L 78.5 76.898438 C 79.101562 76.898438 79.648438 76.648438 80.148438 76.148438 C 80.648438 75.648438 80.898438 75.101562 80.898438 74.5 L 80.898438 66.5 Z M 17.5 28.199219 L 32.601562 28.199219 C 32.265625 27.601562 31.949219 26.898438 31.648438 26.101562 C 31.351562 25.300781 31.199219 24.535156 31.199219 23.800781 C 31.199219 21.667969 31.949219 19.867188 33.449219 18.398438 C 34.949219 16.933594 36.765625 16.199219 38.898438 16.199219 C 40.234375 16.199219 41.5 16.550781 42.699219 17.25 C 43.898438 17.949219 44.867188 18.832031 45.601562 19.898438 L 47.898438 23.300781 L 50.199219 19.898438 C 50.933594 18.765625 51.867188 17.867188 53 17.199219 C 54.132812 16.535156 55.367188 16.199219 56.699219 16.199219 C 58.898438 16.199219 60.734375 16.933594 62.199219 18.398438 C 63.667969 19.867188 64.398438 21.699219 64.398438 23.898438 C 64.398438 24.566406 64.285156 25.265625 64.050781 26 C 63.816406 26.734375 63.5 27.464844 63.101562 28.199219 L 78.5 28.199219 C 80.035156 28.199219 81.332031 28.734375 82.398438 29.800781 C 83.464844 30.867188 84 32.167969 84 33.699219 L 84 74.5 C 84 76.035156 83.464844 77.332031 82.398438 78.398438 C 81.332031 79.464844 80.035156 80 78.5 80 L 17.5 80 C 15.964844 80 14.667969 79.464844 13.601562 78.398438 C 12.535156 77.332031 12 76.035156 12 74.5 L 12 33.699219 C 12 32.167969 12.535156 30.867188 13.601562 29.800781 C 14.667969 28.734375 15.964844 28.199219 17.5 28.199219 Z M 15.101562 58.398438 L 80.898438 58.398438 L 80.898438 33.699219 C 80.898438 33.101562 80.648438 32.535156 80.148438 32 C 79.648438 31.464844 79.101562 31.199219 78.5 31.199219 L 53.101562 31.199219 L 61.699219 43.300781 L 59.300781 45.101562 L 47.800781 29.300781 L 36.398438 45.101562 L 34 43.300781 L 42.699219 31.199219 L 17.5 31.199219 C 16.898438 31.199219 16.351562 31.464844 15.851562 32 C 15.351562 32.535156 15.101562 33.101562 15.101562 33.699219 Z M 38.898438 28.398438 C 40.167969 28.398438 41.25 27.949219 42.148438 27.050781 C 43.050781 26.148438 43.5 25.066406 43.5 23.800781 C 43.5 22.535156 43.050781 21.449219 42.148438 20.550781 C 41.25 19.648438 40.167969 19.199219 38.898438 19.199219 C 37.632812 19.199219 36.550781 19.648438 35.648438 20.550781 C 34.75 21.449219 34.300781 22.535156 34.300781 23.800781 C 34.300781 25.066406 34.75 26.148438 35.648438 27.050781 C 36.550781 27.949219 37.632812 28.398438 38.898438 28.398438 Z M 56.699219 28.398438 C 57.964844 28.398438 59.066406 27.949219 60 27.050781 C 60.933594 26.148438 61.398438 25.066406 61.398438 23.800781 C 61.398438 22.535156 60.933594 21.449219 60 20.550781 C 59.066406 19.648438 57.964844 19.199219 56.699219 19.199219 C 55.5 19.199219 54.449219 19.648438 53.550781 20.550781 C 52.648438 21.449219 52.199219 22.535156 52.199219 23.800781 C 52.199219 25.066406 52.648438 26.148438 53.550781 27.050781 C 54.449219 27.949219 55.5 28.398438 56.699219 28.398438 Z M 56.699219 28.398438 "/>
</g>
</svg>
