<?xml version="1.0" encoding="UTF-8"?>
<svg xmlns="http://www.w3.org/2000/svg" xmlns:xlink="http://www.w3.org/1999/xlink" width="96px" height="96px" viewBox="0 0 96 96" version="1.1">
<g id="surface1">
<path style=" stroke:none;fill-rule:nonzero;fill:rgb(100%,100%,100%);fill-opacity:1;" d="M 36.300781 86.601562 C 33.167969 86.601562 30.433594 85.601562 28.101562 83.601562 C 25.765625 81.601562 24.265625 79.101562 23.601562 76.101562 C 22.734375 77.566406 21.601562 78.714844 20.199219 79.550781 C 18.800781 80.382812 17.234375 80.800781 15.5 80.800781 C 12.832031 80.800781 10.582031 79.867188 8.75 78 C 6.917969 76.132812 6 73.867188 6 71.199219 C 6 68.535156 6.898438 66.285156 8.699219 64.449219 C 10.5 62.617188 12.765625 61.765625 15.5 61.898438 C 14.035156 60.632812 12.867188 59.082031 12 57.25 C 11.132812 55.417969 10.699219 53.535156 10.699219 51.601562 C 10.699219 49.464844 11.214844 47.449219 12.25 45.550781 C 13.285156 43.648438 14.800781 42.101562 16.800781 40.898438 C 17 41.367188 17.234375 41.851562 17.5 42.351562 C 17.765625 42.851562 18 43.300781 18.199219 43.699219 C 16.800781 44.699219 15.734375 45.917969 15 47.351562 C 14.265625 48.785156 13.898438 50.234375 13.898438 51.699219 C 13.898438 56.035156 15.464844 58.816406 18.601562 60.050781 C 21.734375 61.285156 25 62.234375 28.398438 62.898438 L 28.898438 64 C 28.101562 66.132812 27.484375 67.949219 27.050781 69.449219 C 26.617188 70.949219 26.398438 72.332031 26.398438 73.601562 C 26.398438 76.265625 27.367188 78.582031 29.300781 80.550781 C 31.234375 82.515625 33.566406 83.5 36.300781 83.5 C 39.167969 83.5 41.550781 82.417969 43.449219 80.25 C 45.351562 78.082031 46.882812 75.515625 48.050781 72.550781 C 49.214844 69.582031 50.132812 66.5 50.800781 63.300781 C 51.464844 60.101562 52.035156 57.5 52.5 55.5 L 55.5 56.398438 C 54.964844 58.933594 54.332031 61.933594 53.601562 65.398438 C 52.867188 68.867188 51.816406 72.167969 50.449219 75.300781 C 49.082031 78.433594 47.265625 81.101562 45 83.300781 C 42.734375 85.5 39.832031 86.601562 36.300781 86.601562 Z M 15.601562 77.699219 C 17.398438 77.699219 18.917969 77.066406 20.148438 75.800781 C 21.382812 74.535156 22 73 22 71.199219 C 22 69.464844 21.382812 67.964844 20.148438 66.699219 C 18.917969 65.433594 17.398438 64.800781 15.601562 64.800781 C 13.800781 64.800781 12.265625 65.433594 11 66.699219 C 9.734375 67.964844 9.101562 69.464844 9.101562 71.199219 C 9.101562 73 9.734375 74.535156 11 75.800781 C 12.265625 77.066406 13.800781 77.699219 15.601562 77.699219 Z M 40.601562 59.800781 C 37.933594 57.332031 35.5 55.066406 33.300781 53 C 31.101562 50.933594 29.183594 48.898438 27.550781 46.898438 C 25.917969 44.898438 24.667969 42.898438 23.800781 40.898438 C 22.933594 38.898438 22.5 36.800781 22.5 34.601562 C 22.5 31 23.75 27.949219 26.25 25.449219 C 28.75 22.949219 31.800781 21.699219 35.398438 21.699219 C 36.265625 21.699219 37.082031 21.75 37.851562 21.851562 C 38.617188 21.949219 39.300781 22.101562 39.898438 22.300781 C 39.433594 21.5 39.082031 20.734375 38.851562 20 C 38.617188 19.265625 38.5 18.535156 38.5 17.800781 C 38.5 15.132812 39.417969 12.867188 41.25 11 C 43.082031 9.132812 45.332031 8.199219 48 8.199219 C 50.667969 8.199219 52.917969 9.132812 54.75 11 C 56.582031 12.867188 57.5 15.132812 57.5 17.800781 C 57.5 18.535156 57.382812 19.265625 57.148438 20 C 56.917969 20.734375 56.566406 21.5 56.101562 22.300781 C 56.699219 22.101562 57.382812 21.949219 58.148438 21.851562 C 58.917969 21.75 59.734375 21.699219 60.601562 21.699219 C 63.535156 21.699219 66.082031 22.515625 68.25 24.148438 C 70.417969 25.785156 71.898438 27.933594 72.699219 30.601562 C 72.234375 30.535156 71.699219 30.515625 71.101562 30.550781 C 70.5 30.582031 69.964844 30.632812 69.5 30.699219 C 68.832031 28.898438 67.699219 27.464844 66.101562 26.398438 C 64.5 25.332031 62.667969 24.800781 60.601562 24.800781 C 58.066406 24.800781 56.035156 25.433594 54.5 26.699219 C 52.964844 27.964844 50.964844 30.035156 48.5 32.898438 L 47.398438 32.898438 C 44.933594 29.964844 42.933594 27.882812 41.398438 26.648438 C 39.867188 25.417969 37.867188 24.800781 35.398438 24.800781 C 32.601562 24.800781 30.25 25.734375 28.351562 27.601562 C 26.449219 29.464844 25.5 31.800781 25.5 34.601562 C 25.5 36.199219 25.898438 37.832031 26.699219 39.5 C 27.5 41.167969 28.648438 42.933594 30.148438 44.800781 C 31.648438 46.667969 33.464844 48.648438 35.601562 50.75 C 37.734375 52.851562 40.167969 55.101562 42.898438 57.5 Z M 48 24.199219 C 49.800781 24.199219 51.332031 23.582031 52.601562 22.351562 C 53.867188 21.117188 54.5 19.601562 54.5 17.800781 C 54.5 16 53.867188 14.464844 52.601562 13.199219 C 51.332031 11.933594 49.800781 11.300781 48 11.300781 C 46.199219 11.300781 44.667969 11.933594 43.398438 13.199219 C 42.132812 14.464844 41.5 16 41.5 17.800781 C 41.5 19.601562 42.132812 21.117188 43.398438 22.351562 C 44.667969 23.582031 46.199219 24.199219 48 24.199219 Z M 59.5 86.699219 C 58.566406 86.699219 57.632812 86.582031 56.699219 86.351562 C 55.765625 86.117188 54.867188 85.765625 54 85.300781 C 54.199219 84.898438 54.449219 84.433594 54.75 83.898438 C 55.050781 83.367188 55.300781 82.867188 55.5 82.398438 C 56.167969 82.734375 56.851562 83 57.550781 83.199219 C 58.25 83.398438 58.964844 83.5 59.699219 83.5 C 62.367188 83.5 64.683594 82.515625 66.648438 80.550781 C 68.617188 78.582031 69.601562 76.265625 69.601562 73.601562 C 69.601562 72.332031 69.351562 70.964844 68.851562 69.5 C 68.351562 68.035156 67.765625 66.234375 67.101562 64.101562 L 67.601562 63.101562 C 71.132812 62.433594 74.449219 61.464844 77.550781 60.199219 C 80.648438 58.933594 82.199219 56.132812 82.199219 51.800781 C 82.199219 48.464844 81.015625 45.964844 78.648438 44.300781 C 76.285156 42.632812 73.601562 41.800781 70.601562 41.800781 C 67.933594 41.800781 64.785156 42.25 61.148438 43.148438 C 57.515625 44.050781 53.332031 45.300781 48.601562 46.898438 L 47.800781 43.800781 C 52.332031 42.332031 56.449219 41.101562 60.148438 40.101562 C 63.851562 39.101562 67.199219 38.601562 70.199219 38.601562 C 74.066406 38.601562 77.535156 39.734375 80.601562 42 C 83.667969 44.265625 85.199219 47.535156 85.199219 51.800781 C 85.199219 53.734375 84.800781 55.582031 84 57.351562 C 83.199219 59.117188 82.035156 60.632812 80.5 61.898438 C 83.234375 61.832031 85.5 62.714844 87.300781 64.550781 C 89.101562 66.382812 90 68.601562 90 71.199219 C 90 73.867188 89.082031 76.148438 87.25 78.050781 C 85.417969 79.949219 83.167969 80.898438 80.5 80.898438 C 78.765625 80.898438 77.199219 80.484375 75.800781 79.648438 C 74.398438 78.816406 73.300781 77.632812 72.5 76.101562 C 71.699219 79.101562 70.117188 81.617188 67.75 83.648438 C 65.382812 85.683594 62.632812 86.699219 59.5 86.699219 Z M 80.601562 77.800781 C 82.332031 77.800781 83.816406 77.167969 85.050781 75.898438 C 86.285156 74.632812 86.898438 73.101562 86.898438 71.300781 C 86.898438 69.566406 86.265625 68.050781 85 66.75 C 83.734375 65.449219 82.234375 64.800781 80.5 64.800781 C 78.699219 64.800781 77.167969 65.433594 75.898438 66.699219 C 74.632812 67.964844 74 69.464844 74 71.199219 C 74 72.933594 74.648438 74.464844 75.949219 75.800781 C 77.25 77.132812 78.800781 77.800781 80.601562 77.800781 Z M 15.601562 71.199219 Z M 48 17.800781 Z M 80.5 71.199219 Z M 80.5 71.199219 "/>
</g>
</svg>
