<?xml version="1.0" encoding="UTF-8"?>
<svg xmlns="http://www.w3.org/2000/svg" xmlns:xlink="http://www.w3.org/1999/xlink" width="96px" height="96px" viewBox="0 0 96 96" version="1.1">
<g id="surface1">
<path style=" stroke:none;fill-rule:nonzero;fill:rgb(0%, 0%, 0%, 1);fill-opacity:1;" d="M 46.800781 80.699219 C 47.398438 80.699219 48 80.582031 48.601562 80.351562 C 49.199219 80.117188 49.699219 79.765625 50.101562 79.300781 L 81.699219 47.699219 C 82.699219 46.699219 83.5 45.632812 84.101562 44.5 C 84.699219 43.367188 85 42.132812 85 40.800781 C 85 39.464844 84.699219 38.183594 84.101562 36.949219 C 83.5 35.714844 82.699219 34.566406 81.699219 33.5 L 66.199219 18.101562 C 65.199219 17.035156 64.148438 16.25 63.050781 15.75 C 61.949219 15.25 60.734375 15 59.398438 15 C 58.066406 15 56.832031 15.25 55.699219 15.75 C 54.566406 16.25 53.5 17.035156 52.5 18.101562 L 48.699219 21.898438 L 56.5 29.601562 C 57.167969 30.332031 57.75 31.214844 58.25 32.25 C 58.75 33.285156 59 34.332031 59 35.398438 C 59 37.398438 58.300781 39.082031 56.898438 40.449219 C 55.5 41.816406 53.832031 42.5 51.898438 42.5 C 50.699219 42.5 49.632812 42.332031 48.699219 42 C 47.765625 41.667969 46.933594 41.132812 46.199219 40.398438 L 38.601562 32.800781 L 21.101562 50.300781 C 20.632812 50.765625 20.285156 51.300781 20.050781 51.898438 C 19.816406 52.5 19.699219 53.066406 19.699219 53.601562 C 19.699219 54.734375 20.050781 55.632812 20.75 56.300781 C 21.449219 56.964844 22.332031 57.300781 23.398438 57.300781 C 24 57.300781 24.601562 57.167969 25.199219 56.898438 C 25.800781 56.632812 26.300781 56.300781 26.699219 55.898438 L 39.5 43.101562 L 41.699219 45.300781 L 28.898438 58 C 28.433594 58.464844 28.082031 59 27.851562 59.601562 C 27.617188 60.199219 27.5 60.800781 27.5 61.398438 C 27.5 62.398438 27.867188 63.265625 28.601562 64 C 29.332031 64.734375 30.199219 65.101562 31.199219 65.101562 C 31.800781 65.101562 32.398438 64.964844 33 64.699219 C 33.601562 64.433594 34.101562 64.101562 34.5 63.699219 L 48.199219 50 L 50.398438 52.199219 L 36.699219 65.800781 C 36.300781 66.199219 35.964844 66.714844 35.699219 67.351562 C 35.433594 67.984375 35.300781 68.601562 35.300781 69.199219 C 35.300781 70.199219 35.667969 71.066406 36.398438 71.800781 C 37.132812 72.535156 38 72.898438 39 72.898438 C 39.601562 72.898438 40.183594 72.785156 40.75 72.550781 C 41.316406 72.316406 41.832031 71.964844 42.300781 71.5 L 56 57.800781 L 58.199219 60 L 44.5 73.699219 C 44.035156 74.167969 43.683594 74.714844 43.449219 75.351562 C 43.214844 75.984375 43.101562 76.566406 43.101562 77.101562 C 43.101562 78.167969 43.464844 79.035156 44.199219 79.699219 C 44.933594 80.367188 45.800781 80.699219 46.800781 80.699219 Z M 46.800781 83.800781 C 44.867188 83.800781 43.214844 83.050781 41.851562 81.550781 C 40.484375 80.050781 39.867188 78.167969 40 75.898438 C 37.734375 76.035156 35.851562 75.398438 34.351562 74 C 32.851562 72.601562 32.132812 70.667969 32.199219 68.199219 C 29.734375 68.199219 27.800781 67.5 26.398438 66.101562 C 25 64.699219 24.332031 62.765625 24.398438 60.300781 C 22.265625 60.433594 20.433594 59.882812 18.898438 58.648438 C 17.367188 57.417969 16.601562 55.734375 16.601562 53.601562 C 16.601562 52.601562 16.800781 51.617188 17.199219 50.648438 C 17.601562 49.683594 18.167969 48.832031 18.898438 48.101562 L 38.601562 28.300781 L 48 37.699219 C 48.464844 38.167969 49.050781 38.566406 49.75 38.898438 C 50.449219 39.234375 51.167969 39.398438 51.898438 39.398438 C 52.964844 39.398438 53.898438 39 54.699219 38.199219 C 55.5 37.398438 55.898438 36.464844 55.898438 35.398438 C 55.898438 34.734375 55.75 34.101562 55.449219 33.5 C 55.148438 32.898438 54.765625 32.332031 54.300781 31.800781 L 40.5 18.101562 C 39.5 17.035156 38.433594 16.25 37.300781 15.75 C 36.167969 15.25 34.933594 15 33.601562 15 C 32.265625 15 31.050781 15.25 29.949219 15.75 C 28.851562 16.25 27.800781 17 26.800781 18 L 14.101562 30.699219 C 13.101562 31.765625 12.332031 32.933594 11.800781 34.199219 C 11.265625 35.464844 11.035156 36.867188 11.101562 38.398438 C 11.101562 39.464844 11.285156 40.515625 11.648438 41.550781 C 12.015625 42.582031 12.5 43.535156 13.101562 44.398438 L 10.699219 46.699219 C 10.035156 45.632812 9.433594 44.351562 8.898438 42.851562 C 8.367188 41.351562 8.066406 39.832031 8 38.300781 C 7.933594 36.367188 8.25 34.566406 8.949219 32.898438 C 9.648438 31.234375 10.632812 29.734375 11.898438 28.398438 L 24.5 15.898438 C 25.832031 14.566406 27.25 13.566406 28.75 12.898438 C 30.25 12.234375 31.867188 11.898438 33.601562 11.898438 C 35.398438 11.898438 37.050781 12.234375 38.550781 12.898438 C 40.050781 13.566406 41.433594 14.566406 42.699219 15.898438 L 46.5 19.699219 L 50.300781 15.898438 C 51.632812 14.566406 53.050781 13.566406 54.550781 12.898438 C 56.050781 12.234375 57.667969 11.898438 59.398438 11.898438 C 61.132812 11.898438 62.765625 12.234375 64.300781 12.898438 C 65.832031 13.566406 67.234375 14.566406 68.5 15.898438 L 83.898438 31.199219 C 85.234375 32.535156 86.265625 34.050781 87 35.75 C 87.734375 37.449219 88.101562 39.132812 88.101562 40.800781 C 88.101562 42.535156 87.734375 44.148438 87 45.648438 C 86.265625 47.148438 85.234375 48.566406 83.898438 49.898438 L 52.300781 81.5 C 51.5 82.367188 50.648438 82.964844 49.75 83.300781 C 48.851562 83.632812 47.867188 83.800781 46.800781 83.800781 Z M 34.101562 33.898438 Z M 34.101562 33.898438 "/>
</g>
</svg>
