<?xml version="1.0" encoding="UTF-8"?>
<svg xmlns="http://www.w3.org/2000/svg" xmlns:xlink="http://www.w3.org/1999/xlink" viewBox="0 0 96 96" width="96px" height="96px">
<g id="surface31131777">
<path style=" stroke:none;fill-rule:nonzero;fill:rgb(100%,100%,100%);fill-opacity:1;" d="M 48 3.839844 C 23.632812 3.839844 3.839844 23.632812 3.839844 48 C 3.839844 72.367188 23.632812 92.160156 48 92.160156 C 72.367188 92.160156 92.160156 72.367188 92.160156 48 C 92.160156 23.632812 72.367188 3.839844 48 3.839844 Z M 48 7.679688 C 70.289062 7.679688 88.320312 25.710938 88.320312 48 C 88.320312 70.289062 70.289062 88.320312 48 88.320312 C 25.710938 88.320312 7.679688 70.289062 7.679688 48 C 7.679688 25.710938 25.710938 7.679688 48 7.679688 Z M 67.175781 28.777344 C 66.542969 28.789062 65.957031 29.113281 65.609375 29.644531 L 46.023438 58.515625 L 32.023438 45.523438 C 31.523438 45.042969 30.804688 44.871094 30.136719 45.070312 C 29.472656 45.273438 28.96875 45.816406 28.820312 46.496094 C 28.667969 47.171875 28.898438 47.878906 29.414062 48.339844 L 46.6875 64.367188 L 68.789062 31.796875 C 69.203125 31.203125 69.25 30.429688 68.910156 29.792969 C 68.570312 29.15625 67.898438 28.761719 67.175781 28.777344 Z M 67.175781 28.777344 "/>
</g>
</svg>
