<?xml version="1.0" encoding="UTF-8"?>
<svg xmlns="http://www.w3.org/2000/svg" xmlns:xlink="http://www.w3.org/1999/xlink" width="96px" height="96px" viewBox="0 0 96 96" version="1.1">
<g id="surface1">
<path style=" stroke:none;fill-rule:nonzero;fill:rgb(0%, 0%, 0%, 1);fill-opacity:1;" d="M 36.199219 84.898438 L 29.5 73.5 L 16.5 70.898438 L 17.800781 57.800781 L 9.398438 48 L 17.800781 38.199219 L 16.5 25.199219 L 29.5 22.5 L 36.199219 11.101562 L 48 16.300781 L 59.800781 11.101562 L 66.601562 22.5 L 79.601562 25.199219 L 78.199219 38.199219 L 86.601562 48 L 78.199219 57.800781 L 79.601562 70.898438 L 66.601562 73.5 L 59.800781 84.898438 L 48 79.699219 Z M 37.601562 80.898438 L 48 76.601562 L 58.5 80.898438 L 64.800781 71.101562 L 76.101562 68.398438 L 75 56.699219 L 82.800781 48 L 75 39.199219 L 76.101562 27.5 L 64.800781 24.898438 L 58.5 15.101562 L 48 19.398438 L 37.5 15.101562 L 31.199219 24.898438 L 19.898438 27.5 L 21 39.199219 L 13.199219 48 L 21 56.699219 L 19.898438 68.5 L 31.199219 71.101562 Z M 48 48 Z M 43.800781 59 L 63.601562 39.300781 L 61.300781 37.199219 L 43.800781 54.601562 L 34.699219 45.300781 L 32.398438 47.699219 Z M 43.800781 59 "/>
</g>
</svg>
