<?xml version="1.0" encoding="UTF-8"?>
<svg xmlns="http://www.w3.org/2000/svg" xmlns:xlink="http://www.w3.org/1999/xlink" width="96px" height="96px" viewBox="0 0 96 96" version="1.1">
<g id="surface1">
<path style=" stroke:none;fill-rule:nonzero;fill:rgb(100%,100%,100%);fill-opacity:1;" d="M 19.398438 77.800781 L 19.398438 72.601562 L 31.601562 72.601562 L 21.101562 37.398438 C 19.234375 36.535156 17.765625 35.367188 16.699219 33.898438 C 15.632812 32.433594 15.101562 30.566406 15.101562 28.300781 C 15.101562 25.566406 16.050781 23.25 17.949219 21.351562 C 19.851562 19.449219 22.167969 18.5 24.898438 18.5 C 27.433594 18.5 29.566406 19.265625 31.300781 20.800781 C 33.035156 22.332031 34.167969 24.332031 34.699219 26.800781 L 50.101562 26.800781 L 50.101562 19.898438 C 50.101562 19.433594 50.265625 19.050781 50.601562 18.75 C 50.933594 18.449219 51.300781 18.300781 51.699219 18.300781 C 52.234375 18.300781 52.648438 18.515625 52.949219 18.949219 C 53.25 19.382812 53.332031 19.832031 53.199219 20.300781 L 53.199219 21.398438 L 60.898438 14.300781 C 61.367188 13.832031 61.933594 13.535156 62.601562 13.398438 C 63.265625 13.265625 63.964844 13.398438 64.699219 13.800781 L 79.898438 21 C 80.300781 21.132812 80.617188 21.398438 80.851562 21.800781 C 81.082031 22.199219 81.066406 22.632812 80.800781 23.101562 C 80.601562 23.5 80.300781 23.75 79.898438 23.851562 C 79.5 23.949219 79.101562 23.867188 78.699219 23.601562 L 62.898438 16.101562 L 53.199219 25.5 L 53.199219 30.898438 L 62.898438 40.300781 L 78.699219 32.800781 C 79.167969 32.535156 79.566406 32.449219 79.898438 32.550781 C 80.234375 32.648438 80.535156 32.898438 80.800781 33.300781 C 81 33.765625 81 34.199219 80.800781 34.601562 C 80.601562 35 80.300781 35.332031 79.898438 35.601562 L 64.898438 42.601562 C 64.167969 42.933594 63.449219 43.066406 62.75 43 C 62.050781 42.933594 61.398438 42.632812 60.800781 42.101562 L 53.199219 35.199219 L 53.199219 36.300781 C 53.332031 36.964844 53.25 37.464844 52.949219 37.800781 C 52.648438 38.132812 52.234375 38.300781 51.699219 38.300781 C 51.300781 38.300781 50.933594 38.132812 50.601562 37.800781 C 50.265625 37.464844 50.101562 37.132812 50.101562 36.800781 L 50.101562 29.800781 L 34.601562 29.800781 C 34.464844 30.800781 34.117188 31.832031 33.550781 32.898438 C 32.984375 33.964844 32.398438 34.765625 31.800781 35.300781 L 51.398438 72.601562 L 67.398438 72.601562 L 67.398438 77.800781 Z M 24.800781 35 C 26.734375 35 28.351562 34.351562 29.648438 33.050781 C 30.949219 31.75 31.601562 30.167969 31.601562 28.300781 C 31.601562 26.367188 30.949219 24.75 29.648438 23.449219 C 28.351562 22.148438 26.734375 21.5 24.800781 21.5 C 22.933594 21.5 21.351562 22.148438 20.050781 23.449219 C 18.75 24.75 18.101562 26.367188 18.101562 28.300781 C 18.101562 30.167969 18.75 31.75 20.050781 33.050781 C 21.351562 34.351562 22.933594 35 24.800781 35 Z M 35.101562 72.601562 L 47.898438 72.601562 L 29 36.699219 C 28.601562 37.035156 27.933594 37.316406 27 37.550781 C 26.066406 37.785156 25.234375 37.867188 24.5 37.800781 Z M 47.898438 72.601562 Z M 47.898438 72.601562 "/>
</g>
</svg>
